<svg width="18" height="17" viewBox="0 0 18 17" fill="none" xmlns="http://www.w3.org/2000/svg">
<circle cx="14.9997" cy="15.5716" r="1.14286" fill="#1D1700"/>
<circle cx="14.9997" cy="15.5716" r="1.14286" fill="black" fill-opacity="0.2"/>
<circle cx="14.9997" cy="15.5716" r="1.14286" stroke="#1D1700" stroke-width="0.571429"/>
<circle cx="14.9997" cy="15.5716" r="1.14286" stroke="black" stroke-opacity="0.2" stroke-width="0.571429"/>
<circle cx="6.99974" cy="15.5716" r="1.14286" fill="#1D1700"/>
<circle cx="6.99974" cy="15.5716" r="1.14286" fill="black" fill-opacity="0.2"/>
<circle cx="6.99974" cy="15.5716" r="1.14286" stroke="#1D1700" stroke-width="0.571429"/>
<circle cx="6.99974" cy="15.5716" r="1.14286" stroke="black" stroke-opacity="0.2" stroke-width="0.571429"/>
<path d="M1 0.428571C0.684409 0.428571 0.428571 0.684409 0.428571 1C0.428571 1.31559 0.684409 1.57143 1 1.57143V0.428571ZM4.48761 1.86831L5.04231 1.73104V1.73104L4.48761 1.86831ZM6.6033 10.4174L6.0486 10.5547V10.5547L6.6033 10.4174ZM15.4045 10.431L15.9575 10.575L15.4045 10.431ZM16.6272 5.73708L16.0743 5.59303L16.6272 5.73708ZM8.63636 3.73469C8.32077 3.73469 8.06494 3.99053 8.06494 4.30612C8.06494 4.62171 8.32077 4.87755 8.63636 4.87755V3.73469ZM1 1.57143H3.37822V0.428571H1V1.57143ZM3.93292 2.00558L6.0486 10.5547L7.15799 10.2801L5.04231 1.73104L3.93292 2.00558ZM7.71269 11.8571H14.2985V10.7143H7.71269V11.8571ZM15.9575 10.575L17.1802 5.88113L16.0743 5.59303L14.8515 10.2869L15.9575 10.575ZM15.5213 3.73469H8.63636V4.87755H15.5213V3.73469ZM17.1802 5.88113C17.4631 4.79512 16.6435 3.73469 15.5213 3.73469V4.87755C15.8954 4.87755 16.1686 5.23103 16.0743 5.59303L17.1802 5.88113ZM14.2985 11.8571C15.0789 11.8571 15.7607 11.3301 15.9575 10.575L14.8515 10.2869C14.7859 10.5386 14.5586 10.7143 14.2985 10.7143V11.8571ZM6.0486 10.5547C6.23794 11.3197 6.92454 11.8571 7.71269 11.8571V10.7143C7.44997 10.7143 7.2211 10.5352 7.15799 10.2801L6.0486 10.5547ZM3.37822 1.57143C3.64094 1.57143 3.86981 1.75056 3.93292 2.00558L5.04231 1.73104C4.85297 0.965967 4.16637 0.428571 3.37822 0.428571V1.57143Z" fill="#1D1700"/>
<path d="M1 0.428571C0.684409 0.428571 0.428571 0.684409 0.428571 1C0.428571 1.31559 0.684409 1.57143 1 1.57143V0.428571ZM4.48761 1.86831L5.04231 1.73104V1.73104L4.48761 1.86831ZM6.6033 10.4174L6.0486 10.5547V10.5547L6.6033 10.4174ZM15.4045 10.431L15.9575 10.575L15.4045 10.431ZM16.6272 5.73708L16.0743 5.59303L16.6272 5.73708ZM8.63636 3.73469C8.32077 3.73469 8.06494 3.99053 8.06494 4.30612C8.06494 4.62171 8.32077 4.87755 8.63636 4.87755V3.73469ZM1 1.57143H3.37822V0.428571H1V1.57143ZM3.93292 2.00558L6.0486 10.5547L7.15799 10.2801L5.04231 1.73104L3.93292 2.00558ZM7.71269 11.8571H14.2985V10.7143H7.71269V11.8571ZM15.9575 10.575L17.1802 5.88113L16.0743 5.59303L14.8515 10.2869L15.9575 10.575ZM15.5213 3.73469H8.63636V4.87755H15.5213V3.73469ZM17.1802 5.88113C17.4631 4.79512 16.6435 3.73469 15.5213 3.73469V4.87755C15.8954 4.87755 16.1686 5.23103 16.0743 5.59303L17.1802 5.88113ZM14.2985 11.8571C15.0789 11.8571 15.7607 11.3301 15.9575 10.575L14.8515 10.2869C14.7859 10.5386 14.5586 10.7143 14.2985 10.7143V11.8571ZM6.0486 10.5547C6.23794 11.3197 6.92454 11.8571 7.71269 11.8571V10.7143C7.44997 10.7143 7.2211 10.5352 7.15799 10.2801L6.0486 10.5547ZM3.37822 1.57143C3.64094 1.57143 3.86981 1.75056 3.93292 2.00558L5.04231 1.73104C4.85297 0.965967 4.16637 0.428571 3.37822 0.428571V1.57143Z" fill="black" fill-opacity="0.2"/>
</svg>
